<?xml version="1.0" encoding="UTF-8"?>
<svg width="200px" height="195px" viewBox="0 0 200 195" version="1.1" xmlns="http://www.w3.org/2000/svg" xmlns:xlink="http://www.w3.org/1999/xlink">
    <!-- Generator: Sketch 54.1 (76490) - https://sketchapp.com -->
    <title>sber_logo 16%</title>
    <desc>Created with Sketch.</desc>
    <g id="main" stroke="none" stroke-width="1" fill="none" fill-rule="evenodd" opacity="0.159999996">
        <g id="!-10_2-d_donate" transform="translate(-298.000000, -1889.000000)" fill="#1A9F29" fill-rule="nonzero">
            <g id="requisites" transform="translate(216.000000, 1704.000000)">
                <g id="ru" transform="translate(0.000000, 118.000000)">
                    <g id="sber" transform="translate(0.000000, 36.000000)">
                        <path d="M265.613445,68.73261 L143.344538,139.958211 L84.1008403,105.617296 C84.5210084,101.801639 85.3613445,98.4099437 86.6218487,94.5942865 L142.92437,127.239354 L259.310924,59.8294099 C261.411765,62.7971432 263.512605,65.7648766 265.613445,68.73261 Z M142.92437,152.677068 L271.07563,78.4837339 C278.218487,92.050515 282,107.737106 282,124.27162 C282,180.234592 237.042017,225.174555 182,225.174555 C126.537815,225.174555 82,179.81063 82,124.27162 C82,122.151811 82,119.608039 82.4201681,117.48823 L142.92437,152.677068 Z M251.327731,51.3501717 L142.504202,114.520496 L89.9831933,83.9952387 C91.6638655,80.6035434 93.3445378,77.2118482 95.0252101,74.2441148 L142.92437,101.801639 L242.504202,43.7188573 C245.445378,46.2626288 248.386555,48.3824383 251.327731,51.3501717 Z M232.420168,36.9354667 L142.504202,89.0827816 L100.907563,64.9169528 C103.428571,61.9492194 105.529412,58.981486 108.05042,56.4377146 L142.92437,76.3639244 L220.655462,31 C224.857143,32.6958476 228.638655,34.8156572 232.420168,36.9354667 Z" id="sber_logo-16%"></path>
                    </g>
                </g>
            </g>
        </g>
    </g>
</svg>